HIERARCHY
ROOT pelvis
{
  OFFSET 0 100 0
  CHANNELS 6 Xposition Yposition Zposition Zrotation Xrotation Yrotation
  JOINT pelvis_right_femur
  {
    OFFSET -10.78128 -3.44521 -0.5502486
    CHANNELS 3 Zrotation Xrotation Yrotation
    JOINT right_femur_tibia
    {
      OFFSET -0.8047443 -44.0398 -0.1307829
      CHANNELS 3 Zrotation Xrotation Yrotation
      JOINT right_tibia_foot
      {
        OFFSET 3.006224 -47.83518 -5
        CHANNELS 3 Zrotation Xrotation Yrotation
        End Site
        {
          OFFSET 0 -5 15
        }
      }
    }
  }
  JOINT pelvis_left_femur
  {
    OFFSET 10.78128 -3.44521 -0.5502486
    CHANNELS 3 Zrotation Xrotation Yrotation
    JOINT left_femur_tibia
    {
      OFFSET 0.8047443 -44.0398 -0.1307829
      CHANNELS 3 Zrotation Xrotation Yrotation
      JOINT left_tibia_foot
      {
        OFFSET -4.370144 -48.10324 -4.275266
        CHANNELS 3 Zrotation Xrotation Yrotation
        End Site
        {
          OFFSET 0 -5 15
        }
      }
    }
  }
  JOINT pelvis_spine1
  {
    OFFSET 0 6.468898 -3.129235
    CHANNELS 3 Zrotation Xrotation Yrotation
    JOINT spine1
    {
      OFFSET 0 23.15396 4.99043
      CHANNELS 3 Zrotation Xrotation Yrotation
      JOINT spine2
      {
        OFFSET 0 20.79997 -5.064912
        CHANNELS 3 Zrotation Xrotation Yrotation
        JOINT neck
        {
          OFFSET 0 14.38658 9.616178
          CHANNELS 3 Zrotation Xrotation Yrotation
          End Site
          {
            OFFSET 0 20 0
          }
        }
      }
      JOINT right_manubrium
      {
        OFFSET -5.722621 16.35077 3.967754
        CHANNELS 3 Zrotation Xrotation Yrotation
        JOINT right_clavicle
        {
          OFFSET -13.16364 1.694482 -4.693211
          CHANNELS 3 Zrotation Xrotation Yrotation
          JOINT right_humerus
          {
            OFFSET -28.5034 -0.3100689 -2.792744
            CHANNELS 3 Zrotation Xrotation Yrotation
            JOINT right_radius
            {
              OFFSET -25.15693 0.02248979 -1.271978
              CHANNELS 3 Zrotation Xrotation Yrotation
              End Site
              {
                OFFSET -15 0 0
              }
            }
          }
        }
      }
      JOINT left_manubrium
      {
        OFFSET 5.722621 16.35077 3.967754
        CHANNELS 3 Zrotation Xrotation Yrotation
        JOINT left_clavicle
        {
          OFFSET 13.16364 1.694482 -4.693211
          CHANNELS 3 Zrotation Xrotation Yrotation
          JOINT left_humerus
          {
            OFFSET 29.39168 -1.063119 -2.237045
            CHANNELS 3 Zrotation Xrotation Yrotation
            JOINT left_radius
            {
              OFFSET 24.59957 -0.9528479 0.9047498
              CHANNELS 3 Zrotation Xrotation Yrotation
              End Site
              {
                OFFSET 15 -0 -0
              }
            }
          }
        }
      }
    }
  }
}
MOTION
Frames: 17
Frame Time: 0.0416666666667
0 103.5113 0 0.9347982 -2.100087 0.05284756 2.075737 -11.11256 8.796285 -0 39.38415 -0 -7.475645 -18.26382 -4.686836 -6.139823 10.28967 -23.50091 -0 4.512611 -0 5.791798 -14.95895 25.40073 -1.541983 -2.891465 4.963162 2.837665 9.200867 -7.644754 1.632209 20.36265 7.103993 3.299264 -26.90992 10.3271 5.777138 -19.55908 11.23252 85.87006 33.61368 -20.55752 -0 0 16.73994 -4.787934 7.450236 2.984571 7.00648 -20.28557 -0.7349055 -95.17839 25.59482 23.79029 0 0 -17.45172 9.569712 15.66875 3.529669
0.2463509 103.7168 1.596802 0.9208548 -1.423018 0.1030623 2.470234 -13.7895 9.30986 -0 39.31077 -0 -6.449892 -17.70689 -4.568854 -6.386158 11.15585 -23.87224 -0 4.417752 -0 5.676011 -16.29425 25.66411 -1.525402 -2.921526 5.016156 2.805634 9.168228 -7.60723 1.652822 20.37149 7.07759 3.288655 -26.91511 10.33573 5.770341 -19.65109 11.21388 85.7938 33.49787 -20.51623 -0 0 16.99139 -4.636422 7.315188 2.885712 6.997868 -20.20975 -0.7323662 -95.43691 25.81473 24.12235 0 0 -17.35264 9.338457 15.77592 3.835129
0.4805418 103.7678 3.26199 0.589703 -1.2134 0.1676402 3.491327 -17.42542 8.546267 -0 37.00115 -0 -7.13588 -15.06223 -4.022707 -6.331774 12.07991 -23.30129 -0 4.652407 -0 6.193034 -17.73272 25.62605 -1.559109 -2.814941 4.836614 2.906895 9.28861 -7.815216 1.548453 20.34971 7.133297 3.308686 -26.82822 10.19002 5.748551 -19.33958 11.28277 86.27007 33.92248 -20.92967 -0 0 16.01782 -5.200025 7.800862 3.263661 6.952678 -20.58421 -0.8094801 -94.52049 25.52042 23.02728 0 0 -18.229 9.561217 15.40469 3.564794
0.7060909 103.7111 5.03514 0.3041695 -0.4777765 0.2743606 4.411635 -21.07991 8.404151 -0 34.71219 -0 -6.818662 -13.50886 -3.644852 -6.346118 12.79623 -22.86706 -0 4.8047 -0 6.052055 -19.26062 25.28408 -1.55928 -2.774322 4.698277 2.981742 9.342602 -7.992677 1.495618 20.33467 7.161383 3.301497 -26.7882 10.12355 5.726641 -19.1339 11.30821 86.70884 34.13454 -21.41657 -0 0 15.3847 -5.410741 8.085391 3.382992 6.923152 -20.86254 -0.8837936 -93.97529 25.56636 22.34957 0 0 -19.01527 9.516024 15.27053 3.664407
0.9269429 103.5263 7.037599 -0.06021662 0.5216422 0.4428282 5.454839 -24.93427 8.30138 -0 31.6653 -0 -6.310441 -12.03546 -3.245796 -6.30782 13.34516 -22.1689 -0 5.205052 -0 5.505765 -20.7881 24.476 -1.562046 -2.719135 4.542163 3.064229 9.410965 -8.193715 1.429378 20.31822 7.194497 3.296599 -26.72547 10.03325 5.700366 -18.8949 11.34186 87.20883 34.39202 -21.95403 -0 0 14.6461 -5.705483 8.436235 3.554859 6.882754 -21.18432 -0.9729363 -93.32812 25.58728 21.55534 0 0 -19.91226 9.461492 15.09201 3.777447
1.150408 103.2283 9.375429 -0.4419302 1.74933 0.6901301 6.474745 -28.56812 8.312336 -0 28.32053 -0 -5.530111 -10.68277 -2.840931 -6.269314 13.67757 -21.32343 -0 5.939914 -0 4.522931 -22.15553 23.26214 -1.556368 -2.674147 4.39188 3.140063 9.468111 -8.396006 1.369482 20.3044 7.222386 3.286261 -26.65974 9.948998 5.671943 -18.67308 11.36812 87.72557 34.61707 -22.53061 -0 0 13.95651 -5.953392 8.76958 3.686562 6.837145 -21.49949 -1.070559 -92.73806 25.70642 20.83318 0 0 -20.83957 9.305305 14.96009 4.030352
1.383363 102.8354 12.15945 -0.8524805 3.016112 1.019286 7.429416 -31.68889 8.272705 -0 24.81065 -0 -4.781309 -9.326145 -2.437563 -6.189298 13.82314 -20.286 -0 7.249306 -0 3.202994 -23.13575 21.63925 -1.549931 -2.624374 4.252991 3.205086 9.526045 -8.590038 1.306221 20.29471 7.247926 3.27839 -26.57311 9.849633 5.641233 -18.46319 11.39574 88.22973 34.84446 -23.08244 -0 0 13.29308 -6.239613 9.114235 3.841032 6.780131 -21.80675 -1.17482 -92.16649 25.85162 20.15183 0 0 -21.75836 9.085017 14.82493 4.364526
1.630265 102.3835 15.47051 -1.279639 4.098619 1.415309 8.239997 -33.94883 8.089133 -0 21.51734 -0 -4.312291 -8.040828 -2.094854 -6.037019 13.84238 -19.10642 -0 9.338813 -0 1.706897 -23.49573 19.72056 -1.543928 -2.568918 4.134353 3.253335 9.583592 -8.76418 1.240488 20.29124 7.270428 3.275163 -26.46274 9.734178 5.609116 -18.27542 11.42463 88.6921 35.07167 -23.5721 -0 0 12.68576 -6.571583 9.461404 4.024436 6.711201 -22.09089 -1.282356 -91.63697 26.01793 19.54513 0 0 -22.62378 8.799826 14.68589 4.777567
1.891546 101.9349 19.34953 -1.711593 4.776872 1.845419 8.864666 -35.07403 7.705153 -0 18.83165 -0 -4.341231 -6.993817 -1.887107 -5.777509 13.79494 -17.84253 -0 12.4333 -0 0.2231999 -23.0407 17.65323 -1.542107 -2.501909 4.045597 3.278741 9.644483 -8.905688 1.169692 20.29565 7.289974 3.280769 -26.32062 9.594452 5.575627 -18.11619 11.45803 89.07788 35.30756 -23.94652 -0 0 12.15116 -6.985768 9.812186 4.264632 6.628223 -22.33906 -1.389435 -91.15511 26.17264 19.02905 0 0 -23.38651 8.465108 14.52239 5.242893
2.164329 101.5877 23.78941 -2.123972 4.917066 2.266236 9.302824 -34.90836 7.153498 -0 17.09767 -0 -4.943047 -6.385725 -1.875345 -5.400103 13.66769 -16.56586 -0 16.70066 -0 -1.093397 -21.68244 15.59614 -1.546886 -2.420125 3.996435 3.275404 9.710484 -9.00277 1.092953 20.30939 7.305901 3.297946 -26.14168 9.425674 5.540366 -17.9939 11.49778 89.3552 35.55404 -24.16129 -0 0 11.71218 -7.505255 10.16151 4.579533 6.529887 -22.53774 -1.49252 -90.73481 26.29692 18.62796 0 0 -24.00326 8.087855 14.32157 5.746471
2.445076 101.4704 28.73759 -2.482318 4.517882 2.636203 9.575916 -33.4234 6.522979 -0 16.46578 -0 -6.034942 -6.338516 -2.072658 -4.922172 13.30888 -15.32249 -0 22.21543 -0 -2.17622 -19.4534 13.66021 -1.560342 -2.320574 3.997024 3.2371 9.783399 -9.044068 1.009427 20.33383 7.317173 3.328957 -25.92034 9.222712 5.502071 -17.91742 11.54572 89.49337 35.81096 -24.17392 -0 0 11.39218 -8.153978 10.5039 4.987107 6.414286 -22.67397 -1.588724 -90.39019 26.37655 18.36749 0 0 -24.43602 7.669441 14.07036 6.282
2.733008 101.7173 34.1011 -2.741798 3.71656 2.928206 9.680136 -30.69288 5.90616 -0 16.80262 -0 -7.391326 -6.824833 -2.414269 -4.38542 12.39867 -14.11308 -0 28.89646 -0 -3.054652 -16.50172 11.89846 -1.583863 -2.201018 4.05766 3.157035 9.86419 -9.018604 0.9188924 20.37063 7.322533 3.375374 -25.65068 8.981412 5.458732 -17.89628 11.60305 89.46385 36.07411 -23.94575 -0 0 11.21654 -8.953819 10.83312 5.502456 6.279073 -22.73485 -1.676062 -90.13772 26.40633 18.27629 0 0 -24.65257 7.202519 13.75854 6.855425
3.032294 102.4249 39.75269 -2.846711 2.74659 3.135636 9.557309 -26.85626 5.354121 -0 17.65371 -0 -8.691376 -7.649069 -2.736871 -3.840639 10.48048 -12.88974 -0 36.42579 -0 -3.811912 -13.0838 10.34727 -1.618545 -2.0592 4.188882 3.027551 9.953442 -8.914995 0.8215788 20.42182 7.320919 3.438367 -25.32545 8.698451 5.407537 -17.94009 11.67067 89.23873 36.33537 -23.43833 -0 0 11.21162 -9.929697 11.14431 6.140813 6.121415 -22.70703 -1.753338 -89.99378 26.38436 18.38327 0 0 -24.62336 6.674605 13.37615 7.479665
3.350949 103.5978 45.54139 -2.735545 1.851786 3.265076 9.119189 -22.10728 4.864316 -0 18.27788 -0 -9.59554 -8.485329 -2.795962 -3.320852 7.090758 -11.58051 -0 44.12794 -0 -4.511933 -9.575154 9.102568 -1.665252 -1.89296 4.400727 2.840606 10.05136 -8.721563 0.7186419 20.4895 7.311835 3.518339 -24.93669 8.372982 5.344843 -18.05757 11.74901 88.79194 36.58047 -22.61435 -0 0 11.40352 -11.10936 11.43483 6.91674 5.938784 -22.57677 -1.819872 -89.97264 26.30688 18.71364 0 0 -24.32037 6.073716 12.91309 8.16714
3.695045 105.1007 51.31113 -2.366751 1.146022 3.312664 8.33321 -16.7025 4.390484 -0 17.83105 -0 -9.89242 -9.006798 -2.378086 -2.802806 2.037437 -10.13712 -0 50.87383 -0 -5.116365 -6.460894 8.383655 -1.724225 -1.701383 4.70064 2.589402 10.15721 -8.428101 0.6131877 20.575 7.29554 3.613834 -24.47835 8.009828 5.266223 -18.25482 11.83746 88.10491 36.78481 -21.44579 -0 0 11.81533 -12.51606 11.70371 7.838587 5.73054 -22.33121 -1.875243 -90.08391 26.16556 19.28256 0 0 -23.72053 5.395034 12.36161 8.921587
4.061689 106.653 56.92449 -1.769357 0.4750286 3.241867 7.328393 -10.96096 3.86974 -0 15.7917 -0 -9.672037 -9.156458 -1.514167 -2.187659 -4.247016 -8.581696 -0 55.18963 -0 -5.443507 -4.226208 8.498727 -1.79404 -1.487311 5.089955 2.271203 10.26764 -8.029664 0.5116418 20.67805 7.272881 3.719995 -23.9512 7.623558 5.167164 -18.53342 11.93299 87.17798 36.90982 -19.93157 -0 0 12.46319 -14.15005 11.9484 8.896125 5.50006 -21.96143 -1.919095 -90.33238 25.95347 20.09002 0 0 -22.815 4.644206 11.72426 9.735463
4.442042 107.9027 62.28821 -1.079713 -0.5144535 3.000177 6.394026 -5.2317 3.274652 -0 12.4432 -0 -9.28453 -9.406917 -0.5918412 -1.355386 -10.66566 -7.015605 -0 55.75416 -0 -5.270847 -3.124956 9.633009 -1.870685 -1.259666 5.56035 1.890307 10.37488 -7.531142 0.4238796 20.79657 7.245124 3.828283 -23.36817 7.239763 5.045056 -18.88892 12.02902 86.04249 36.90817 -18.1169 -0 0 13.35062 -15.96731 12.16114 10.04831 5.255951 -21.46693 -1.950929 -90.7206 25.679 21.12021 0 0 -21.62101 3.834476 11.02405 10.59616
